<svg xmlns="http://www.w3.org/2000/svg" xmlns:xlink="http://www.w3.org/1999/xlink" width="900" zoomAndPan="magnify" viewBox="0 0 675 119.999999" height="160" preserveAspectRatio="xMidYMid meet" version="1.0"><defs><g/><clipPath id="109da4270c"><rect x="0" width="649" y="0" height="120"/></clipPath></defs><g transform="matrix(1, 0, 0, 1, 11, 0.000000000000001943)"><g clip-path="url(#109da4270c)"><g fill="#1d3a89" fill-opacity="1"><g transform="translate(0.472323, 99.189831)"><g><path d="M 69.671875 -23.375 C 69.671875 -19.539062 68.75 -16.066406 66.90625 -12.953125 C 65.070312 -9.835938 62.65625 -7.175781 59.65625 -4.96875 C 56.65625 -2.769531 53.316406 -1.09375 49.640625 0.0625 C 45.960938 1.21875 42.242188 1.796875 38.484375 1.796875 C 34.890625 1.796875 31.210938 1.253906 27.453125 0.171875 C 23.703125 -0.898438 20.226562 -2.535156 17.03125 -4.734375 C 13.832031 -6.929688 11.253906 -9.726562 9.296875 -13.125 C 7.335938 -16.519531 6.359375 -20.578125 6.359375 -25.296875 L 6.359375 -53.59375 C 6.359375 -58.3125 7.335938 -62.367188 9.296875 -65.765625 C 11.253906 -69.160156 13.832031 -71.957031 17.03125 -74.15625 C 20.226562 -76.351562 23.703125 -77.992188 27.453125 -79.078125 C 31.210938 -80.160156 34.890625 -80.703125 38.484375 -80.703125 C 43.441406 -80.703125 48.195312 -79.859375 52.75 -78.171875 C 57.3125 -76.492188 61.148438 -73.976562 64.265625 -70.625 C 67.390625 -67.269531 69.191406 -63.035156 69.671875 -57.921875 C 69.671875 -56.472656 69.390625 -55.53125 68.828125 -55.09375 C 68.265625 -54.65625 67.304688 -54.4375 65.953125 -54.4375 L 54.4375 -54.4375 C 53.15625 -54.4375 52.351562 -54.875 52.03125 -55.75 C 51.71875 -56.632812 51.320312 -57.4375 50.84375 -58.15625 C 49.5625 -60.15625 48 -61.613281 46.15625 -62.53125 C 44.320312 -63.445312 41.765625 -63.90625 38.484375 -63.90625 C 34.566406 -63.90625 31.367188 -62.847656 28.890625 -60.734375 C 26.421875 -58.617188 25.1875 -55.679688 25.1875 -51.921875 L 25.1875 -26.984375 C 25.1875 -23.140625 26.421875 -20.175781 28.890625 -18.09375 C 31.367188 -16.019531 34.566406 -14.984375 38.484375 -14.984375 C 41.765625 -14.984375 44.5625 -15.625 46.875 -16.90625 C 49.195312 -18.1875 50.597656 -20.265625 51.078125 -23.140625 C 51.234375 -24.335938 51.492188 -25.351562 51.859375 -26.1875 C 52.222656 -27.03125 53.039062 -27.453125 54.3125 -27.453125 L 66.0625 -27.453125 C 68.46875 -27.453125 69.671875 -26.09375 69.671875 -23.375 Z M 69.671875 -23.375 "/></g></g></g><g fill="#1d3a89" fill-opacity="1"><g transform="translate(76.256452, 99.189831)"><g><path d="M 70.859375 -25.296875 C 70.859375 -20.578125 69.859375 -16.5 67.859375 -13.0625 C 65.867188 -9.625 63.273438 -6.804688 60.078125 -4.609375 C 56.878906 -2.410156 53.398438 -0.796875 49.640625 0.234375 C 45.878906 1.273438 42.203125 1.796875 38.609375 1.796875 C 35.015625 1.796875 31.359375 1.273438 27.640625 0.234375 C 23.921875 -0.796875 20.460938 -2.410156 17.265625 -4.609375 C 14.066406 -6.804688 11.488281 -9.625 9.53125 -13.0625 C 7.570312 -16.5 6.59375 -20.578125 6.59375 -25.296875 L 6.59375 -53.59375 C 6.59375 -58.3125 7.570312 -62.390625 9.53125 -65.828125 C 11.488281 -69.265625 14.066406 -72.082031 17.265625 -74.28125 C 20.460938 -76.476562 23.921875 -78.097656 27.640625 -79.140625 C 31.359375 -80.179688 35.015625 -80.703125 38.609375 -80.703125 C 42.203125 -80.703125 45.878906 -80.179688 49.640625 -79.140625 C 53.398438 -78.097656 56.878906 -76.476562 60.078125 -74.28125 C 63.273438 -72.082031 65.867188 -69.265625 67.859375 -65.828125 C 69.859375 -62.390625 70.859375 -58.3125 70.859375 -53.59375 Z M 52.046875 -51.921875 C 52.046875 -55.753906 50.804688 -58.726562 48.328125 -60.84375 C 45.847656 -62.96875 42.609375 -64.03125 38.609375 -64.03125 C 34.691406 -64.03125 31.492188 -62.96875 29.015625 -60.84375 C 26.535156 -58.726562 25.296875 -55.753906 25.296875 -51.921875 L 25.296875 -26.984375 C 25.296875 -23.140625 26.535156 -20.160156 29.015625 -18.046875 C 31.492188 -15.929688 34.691406 -14.875 38.609375 -14.875 C 42.609375 -14.875 45.847656 -15.929688 48.328125 -18.046875 C 50.804688 -20.160156 52.046875 -23.140625 52.046875 -26.984375 Z M 52.046875 -51.921875 "/></g></g></g><g fill="#1d3a89" fill-opacity="1"><g transform="translate(153.599435, 99.189831)"><g><path d="M 39.203125 -78.890625 C 42.804688 -78.890625 46.484375 -78.347656 50.234375 -77.265625 C 53.992188 -76.191406 57.472656 -74.578125 60.671875 -72.421875 C 63.867188 -70.265625 66.46875 -67.488281 68.46875 -64.09375 C 70.46875 -60.695312 71.46875 -56.640625 71.46875 -51.921875 L 71.46875 -26.984375 C 71.46875 -22.265625 70.46875 -18.207031 68.46875 -14.8125 C 66.46875 -11.414062 63.867188 -8.617188 60.671875 -6.421875 C 57.472656 -4.222656 53.992188 -2.601562 50.234375 -1.5625 C 46.484375 -0.519531 42.804688 0 39.203125 0 L 12.34375 0 C 10.988281 0 10.070312 -0.316406 9.59375 -0.953125 C 9.113281 -1.597656 8.875 -2.441406 8.875 -3.484375 L 8.875 -75.421875 C 8.875 -76.535156 9.113281 -77.390625 9.59375 -77.984375 C 10.070312 -78.585938 10.988281 -78.890625 12.34375 -78.890625 Z M 52.640625 -50.234375 C 52.640625 -53.992188 51.398438 -56.929688 48.921875 -59.046875 C 46.441406 -61.171875 43.203125 -62.234375 39.203125 -62.234375 L 27.703125 -62.234375 L 27.703125 -16.671875 L 39.203125 -16.671875 C 43.203125 -16.671875 46.441406 -17.707031 48.921875 -19.78125 C 51.398438 -21.863281 52.640625 -24.820312 52.640625 -28.65625 Z M 52.640625 -50.234375 "/></g></g></g><g fill="#1d3a89" fill-opacity="1"><g transform="translate(231.541987, 99.189831)"><g><path d="M 76.734375 -3.359375 C 77.054688 -2.640625 77.132812 -1.898438 76.96875 -1.140625 C 76.8125 -0.378906 76.054688 0 74.703125 0 L 62.109375 0 C 60.828125 0 59.867188 -0.238281 59.234375 -0.71875 C 58.597656 -1.195312 58.039062 -2.15625 57.5625 -3.59375 L 54.203125 -13.0625 L 24.828125 -13.0625 L 21.46875 -3.59375 C 20.988281 -2.15625 20.445312 -1.195312 19.84375 -0.71875 C 19.238281 -0.238281 18.257812 0 16.90625 0 L 4.3125 0 C 3.03125 0 2.289062 -0.378906 2.09375 -1.140625 C 1.894531 -1.898438 1.957031 -2.640625 2.28125 -3.359375 L 28.890625 -75.1875 C 29.367188 -76.457031 29.988281 -77.390625 30.75 -77.984375 C 31.507812 -78.585938 32.53125 -78.890625 33.8125 -78.890625 L 45.328125 -78.890625 C 46.679688 -78.890625 47.695312 -78.585938 48.375 -77.984375 C 49.0625 -77.390625 49.679688 -76.457031 50.234375 -75.1875 Z M 39.5625 -56.359375 L 30.578125 -29.859375 L 48.5625 -29.859375 Z M 39.5625 -56.359375 "/></g></g></g><g fill="#0f172a" fill-opacity="1"><g transform="translate(310.086564, 99.189831)"><g><path d="M 69.671875 -23.375 C 69.671875 -19.539062 68.75 -16.066406 66.90625 -12.953125 C 65.070312 -9.835938 62.65625 -7.175781 59.65625 -4.96875 C 56.65625 -2.769531 53.316406 -1.09375 49.640625 0.0625 C 45.960938 1.21875 42.242188 1.796875 38.484375 1.796875 C 34.890625 1.796875 31.210938 1.253906 27.453125 0.171875 C 23.703125 -0.898438 20.226562 -2.535156 17.03125 -4.734375 C 13.832031 -6.929688 11.253906 -9.726562 9.296875 -13.125 C 7.335938 -16.519531 6.359375 -20.578125 6.359375 -25.296875 L 6.359375 -53.59375 C 6.359375 -58.3125 7.335938 -62.367188 9.296875 -65.765625 C 11.253906 -69.160156 13.832031 -71.957031 17.03125 -74.15625 C 20.226562 -76.351562 23.703125 -77.992188 27.453125 -79.078125 C 31.210938 -80.160156 34.890625 -80.703125 38.484375 -80.703125 C 43.441406 -80.703125 48.195312 -79.859375 52.75 -78.171875 C 57.3125 -76.492188 61.148438 -73.976562 64.265625 -70.625 C 67.390625 -67.269531 69.191406 -63.035156 69.671875 -57.921875 C 69.671875 -56.472656 69.390625 -55.53125 68.828125 -55.09375 C 68.265625 -54.65625 67.304688 -54.4375 65.953125 -54.4375 L 54.4375 -54.4375 C 53.15625 -54.4375 52.351562 -54.875 52.03125 -55.75 C 51.71875 -56.632812 51.320312 -57.4375 50.84375 -58.15625 C 49.5625 -60.15625 48 -61.613281 46.15625 -62.53125 C 44.320312 -63.445312 41.765625 -63.90625 38.484375 -63.90625 C 34.566406 -63.90625 31.367188 -62.847656 28.890625 -60.734375 C 26.421875 -58.617188 25.1875 -55.679688 25.1875 -51.921875 L 25.1875 -26.984375 C 25.1875 -23.140625 26.421875 -20.175781 28.890625 -18.09375 C 31.367188 -16.019531 34.566406 -14.984375 38.484375 -14.984375 C 41.765625 -14.984375 44.5625 -15.625 46.875 -16.90625 C 49.195312 -18.1875 50.597656 -20.265625 51.078125 -23.140625 C 51.234375 -24.335938 51.492188 -25.351562 51.859375 -26.1875 C 52.222656 -27.03125 53.039062 -27.453125 54.3125 -27.453125 L 66.0625 -27.453125 C 68.46875 -27.453125 69.671875 -26.09375 69.671875 -23.375 Z M 69.671875 -23.375 "/></g></g></g><g fill="#0f172a" fill-opacity="1"><g transform="translate(385.870692, 99.189831)"><g><path d="M 73.5 -3.84375 C 74.0625 -3.039062 74.179688 -2.195312 73.859375 -1.3125 C 73.535156 -0.4375 72.816406 0 71.703125 0 L 57.5625 0 C 56.113281 0 54.96875 -0.273438 54.125 -0.828125 C 53.289062 -1.390625 52.4375 -2.3125 51.5625 -3.59375 L 38.609375 -22.90625 C 38.046875 -23.625 37.6875 -24.398438 37.53125 -25.234375 C 37.375 -26.078125 37.296875 -27.335938 37.296875 -29.015625 L 37.296875 -38.609375 C 37.296875 -39.722656 37.535156 -40.582031 38.015625 -41.1875 C 38.492188 -41.789062 39.410156 -42.09375 40.765625 -42.09375 L 43.171875 -42.09375 C 46.128906 -42.09375 48.765625 -43.007812 51.078125 -44.84375 C 53.398438 -46.6875 54.5625 -49.003906 54.5625 -51.796875 C 54.5625 -54.910156 53.5 -57.382812 51.375 -59.21875 C 49.257812 -61.0625 46.644531 -61.984375 43.53125 -61.984375 L 27.578125 -61.984375 L 27.578125 -3.484375 C 27.578125 -2.117188 27.273438 -1.195312 26.671875 -0.71875 C 26.078125 -0.238281 25.21875 0 24.09375 0 L 12.234375 0 C 11.191406 0 10.367188 -0.238281 9.765625 -0.71875 C 9.171875 -1.195312 8.875 -2.117188 8.875 -3.484375 L 8.875 -75.296875 C 8.875 -76.421875 9.09375 -77.28125 9.53125 -77.875 C 9.96875 -78.476562 10.867188 -78.78125 12.234375 -78.78125 L 42.453125 -78.78125 C 46.847656 -78.78125 50.484375 -78.5 53.359375 -77.9375 C 56.234375 -77.375 58.691406 -76.515625 60.734375 -75.359375 C 62.773438 -74.203125 64.632812 -72.785156 66.3125 -71.109375 C 68.550781 -68.941406 70.269531 -66.21875 71.46875 -62.9375 C 72.664062 -59.664062 73.265625 -56.113281 73.265625 -52.28125 C 73.265625 -48.125 72.382812 -44.40625 70.625 -41.125 C 68.863281 -37.851562 66.703125 -35.132812 64.140625 -32.96875 C 61.585938 -30.8125 59.070312 -29.296875 56.59375 -28.421875 Z M 73.5 -3.84375 "/></g></g></g><g fill="#0f172a" fill-opacity="1"><g transform="translate(465.731814, 99.189831)"><g><path d="M 66.0625 -16.78125 C 67.425781 -16.78125 68.347656 -16.476562 68.828125 -15.875 C 69.304688 -15.28125 69.546875 -14.425781 69.546875 -13.3125 L 69.546875 -3.484375 C 69.546875 -2.441406 69.304688 -1.597656 68.828125 -0.953125 C 68.347656 -0.316406 67.425781 0 66.0625 0 L 12.34375 0 C 10.988281 0 10.070312 -0.316406 9.59375 -0.953125 C 9.113281 -1.597656 8.875 -2.441406 8.875 -3.484375 L 8.875 -75.421875 C 8.875 -76.535156 9.113281 -77.390625 9.59375 -77.984375 C 10.070312 -78.585938 10.988281 -78.890625 12.34375 -78.890625 L 64.03125 -78.890625 C 65.382812 -78.890625 66.300781 -78.585938 66.78125 -77.984375 C 67.257812 -77.390625 67.5 -76.535156 67.5 -75.421875 L 67.5 -65.46875 C 67.5 -64.425781 67.257812 -63.582031 66.78125 -62.9375 C 66.300781 -62.300781 65.382812 -61.984375 64.03125 -61.984375 L 27.8125 -61.984375 L 27.8125 -48.921875 L 59.953125 -48.921875 C 61.304688 -48.921875 62.222656 -48.617188 62.703125 -48.015625 C 63.191406 -47.421875 63.4375 -46.5625 63.4375 -45.4375 L 63.4375 -36.09375 C 63.4375 -35.050781 63.191406 -34.207031 62.703125 -33.5625 C 62.222656 -32.925781 61.304688 -32.609375 59.953125 -32.609375 L 27.8125 -32.609375 L 27.8125 -16.78125 Z M 66.0625 -16.78125 "/></g></g></g><g fill="#0f172a" fill-opacity="1"><g transform="translate(540.916395, 99.189831)"><g><path d="M 103 -78.890625 C 104.113281 -78.890625 104.789062 -78.488281 105.03125 -77.6875 C 105.269531 -76.894531 105.269531 -76.140625 105.03125 -75.421875 L 82.96875 -2.515625 C 82.96875 -2.515625 82.769531 -2.09375 82.375 -1.25 C 81.976562 -0.414062 81.097656 0 79.734375 0 L 69.671875 0 C 68.148438 0 67.128906 -0.457031 66.609375 -1.375 C 66.085938 -2.300781 65.828125 -2.765625 65.828125 -2.765625 L 53.84375 -41.015625 L 41.84375 -2.765625 C 41.84375 -2.765625 41.601562 -2.300781 41.125 -1.375 C 40.644531 -0.457031 39.609375 0 38.015625 0 L 27.453125 0 C 26.179688 0 25.320312 -0.414062 24.875 -1.25 C 24.4375 -2.09375 24.21875 -2.515625 24.21875 -2.515625 L 2.03125 -75.421875 C 1.875 -76.140625 1.9375 -76.894531 2.21875 -77.6875 C 2.5 -78.488281 3.160156 -78.890625 4.203125 -78.890625 L 17.390625 -78.890625 C 19.222656 -78.890625 20.421875 -78.429688 20.984375 -77.515625 C 21.546875 -76.597656 21.945312 -75.78125 22.1875 -75.0625 L 34.046875 -34.296875 L 45.5625 -75.0625 C 45.800781 -75.9375 46.203125 -76.789062 46.765625 -77.625 C 47.328125 -78.46875 48.285156 -78.890625 49.640625 -78.890625 L 58.03125 -78.890625 C 59.394531 -78.890625 60.332031 -78.46875 60.84375 -77.625 C 61.363281 -76.789062 61.742188 -75.9375 61.984375 -75.0625 L 73.625 -34.296875 L 85.5 -75.0625 C 85.65625 -75.78125 86.050781 -76.597656 86.6875 -77.515625 C 87.332031 -78.429688 88.535156 -78.890625 90.296875 -78.890625 Z M 103 -78.890625 "/></g></g></g></g></g></svg>